<?xml version="1.0" encoding="UTF-8"?>
<svg xmlns="http://www.w3.org/2000/svg" viewBox="0 0 800 600">
  <!-- Background -->
  <rect width="800" height="600" fill="#E8F5E9"/>
  
  <!-- Sky -->
  <rect x="0" y="0" width="800" height="250" fill="#B3E5FC"/>
  
  <!-- Sun -->
  <circle cx="700" cy="80" r="40" fill="#FFEB3B"/>
  <circle cx="700" cy="80" r="30" fill="#FFD600"/>
  
  <!-- Mountain Background -->
  <polygon points="0,250 150,100 250,200 350,50 450,150 550,70 650,180 800,120 800,250" fill="#78909C"/>
  <polygon points="50,250 200,150 300,220 400,100 500,180 600,120 750,200 800,180 800,250" fill="#546E7A"/>
  
  <!-- Trees Background -->
  <g id="trees-bg">
    <!-- Tree 1 -->
    <polygon points="100,250 80,200 120,200" fill="#2E7D32"/>
    <polygon points="100,210 80,160 120,160" fill="#2E7D32"/>
    <rect x="95" y="200" width="10" height="50" fill="#795548"/>
    
    <!-- Tree 2 -->
    <polygon points="160,250 140,200 180,200" fill="#2E7D32"/>
    <polygon points="160,210 140,160 180,160" fill="#2E7D32"/>
    <rect x="155" y="200" width="10" height="50" fill="#795548"/>
    
    <!-- Tree 3 -->
    <polygon points="600,250 580,200 620,200" fill="#2E7D32"/>
    <polygon points="600,210 580,160 620,160" fill="#2E7D32"/>
    <rect x="595" y="200" width="10" height="50" fill="#795548"/>
    
    <!-- Tree 4 -->
    <polygon points="700,250 680,200 720,200" fill="#2E7D32"/>
    <polygon points="700,210 680,160 720,160" fill="#2E7D32"/>
    <rect x="695" y="200" width="10" height="50" fill="#795548"/>
  </g>
  
  <!-- Ground -->
  <rect x="0" y="250" width="800" height="350" fill="#8D6E63"/>
  
  <!-- Grass -->
  <rect x="0" y="250" width="800" height="20" fill="#66BB6A"/>
  
  <!-- Campsite Area -->
  <ellipse cx="400" cy="400" rx="300" ry="150" fill="#A1887F"/>
  
  <!-- Tent -->
  <g transform="translate(250, 350)">
    <!-- Tent body -->
    <polygon points="0,100 -80,100 -40,20 0,100" fill="#FFA000"/>
    <polygon points="0,100 80,100 40,20 0,100" fill="#FF8F00"/>
    
    <!-- Tent entrance -->
    <path d="M-15,100 C-10,70 10,70 15,100" fill="none" stroke="#5D4037" stroke-width="3"/>
    
    <!-- Tent poles -->
    <line x1="0" y1="20" x2="0" y2="-10" stroke="#5D4037" stroke-width="3"/>
  </g>
  
  <!-- Campfire -->
  <g transform="translate(400, 420)">
    <!-- Fire pit stones -->
    <circle cx="0" cy="0" r="25" fill="#78909C"/>
    <circle cx="0" cy="0" r="20" fill="#A1887F"/>
    
    <!-- Wood logs -->
    <rect x="-15" y="-5" width="30" height="10" fill="#5D4037"/>
    <rect x="-5" y="-15" width="10" height="30" fill="#5D4037"/>
    
    <!-- Flames -->
    <path d="M0,0 Q-10,-15 -5,-25 Q0,-15 5,-25 Q10,-15 0,0" fill="#FF5722"/>
    <path d="M0,-5 Q-5,-15 -2,-20 Q0,-15 2,-20 Q5,-15 0,-5" fill="#FFEB3B"/>
  </g>
  
  <!-- Backpack -->
  <g transform="translate(320, 430)">
    <rect x="-20" y="-30" width="40" height="50" rx="5" fill="#1976D2"/>
    <rect x="-15" y="-25" width="30" height="10" rx="2" fill="#1565C0"/>
    <rect x="-15" y="5" width="30" height="10" rx="2" fill="#1565C0"/>
    <rect x="-5" y="-40" width="10" height="10" fill="#1565C0"/>
  </g>
  
  <!-- Cooler -->
  <g transform="translate(480, 430)">
    <rect x="-20" y="-15" width="40" height="30" fill="#E53935"/>
    <rect x="-20" y="-20" width="40" height="5" fill="#C62828"/>
    <rect x="-15" y="-18" width="30" height="3" fill="#FFFFFF"/>
    <rect x="15" y="-10" width="5" height="20" fill="#C62828"/>
  </g>
  
  <!-- Sleeping Bag -->
  <g transform="translate(180, 420)">
    <rect x="-30" y="-10" width="60" height="20" rx="10" fill="#3949AB"/>
    <rect x="-25" y="-8" width="50" height="16" rx="8" fill="#303F9F"/>
  </g>
  
  <!-- Firewood Stack -->
  <g transform="translate(520, 400)">
    <rect x="-25" y="-5" width="20" height="10" fill="#795548"/>
    <rect x="-20" y="-15" width="15" height="10" fill="#8D6E63"/>
    <rect x="-15" y="5" width="25" height="10" fill="#5D4037"/>
    <rect x="0" y="-10" width="20" height="10" fill="#8D6E63"/>
    <rect x="5" y="0" width="15" height="10" fill="#795548"/>
  </g>
  
  <!-- Lantern -->
  <g transform="translate(550, 370)">
    <rect x="-5" y="-20" width="10" height="5" fill="#9E9E9E"/>
    <rect x="-10" y="-15" width="20" height="25" fill="#FFC107"/>
    <rect x="-10" y="10" width="20" height="5" fill="#9E9E9E"/>
    <rect x="-2" y="15" width="4" height="5" fill="#9E9E9E"/>
    <rect x="-12" y="-10" width="24" height="15" fill="#FFECB3" opacity="0.5"/>
  </g>
  
  <!-- Water Bottle -->
  <g transform="translate(350, 440)">
    <rect x="-5" y="-15" width="10" height="30" rx="3" fill="#29B6F6"/>
    <rect x="-3" y="-20" width="6" height="5" rx="2" fill="#0288D1"/>
  </g>
  
  <!-- Compass -->
  <g transform="translate(450, 370)">
    <circle cx="0" cy="0" r="10" fill="#BDBDBD"/>
    <circle cx="0" cy="0" r="8" fill="white"/>
    <line x1="0" y1="0" x2="0" y2="-6" stroke="red" stroke-width="1"/>
    <line x1="0" y1="0" x2="4" y2="5" stroke="#424242" stroke-width="1"/>
  </g>
</svg>
