<?xml version="1.0" encoding="UTF-8"?>
<svg width="400" height="200" viewBox="0 0 400 200" xmlns="http://www.w3.org/2000/svg">
  <rect x="0" y="0" width="400" height="200" fill="#e0f7fa"/>
  
  <!-- Dance floor -->
  <rect x="50" y="120" width="300" height="80" fill="#212121" stroke="#000000" stroke-width="1"/>
  
  <!-- Dance floor tiles -->
  <g>
    <rect x="70" y="140" width="20" height="20" fill="#f5f5f5"/>
    <rect x="90" y="140" width="20" height="20" fill="#9e9e9e"/>
    <rect x="110" y="140" width="20" height="20" fill="#f5f5f5"/>
    <rect x="130" y="140" width="20" height="20" fill="#9e9e9e"/>
    <rect x="150" y="140" width="20" height="20" fill="#f5f5f5"/>
    <rect x="170" y="140" width="20" height="20" fill="#9e9e9e"/>
    <rect x="190" y="140" width="20" height="20" fill="#f5f5f5"/>
    <rect x="210" y="140" width="20" height="20" fill="#9e9e9e"/>
    <rect x="230" y="140" width="20" height="20" fill="#f5f5f5"/>
    <rect x="250" y="140" width="20" height="20" fill="#9e9e9e"/>
    <rect x="270" y="140" width="20" height="20" fill="#f5f5f5"/>
    <rect x="290" y="140" width="20" height="20" fill="#9e9e9e"/>
    <rect x="310" y="140" width="20" height="20" fill="#f5f5f5"/>

    <rect x="70" y="160" width="20" height="20" fill="#9e9e9e"/>
    <rect x="90" y="160" width="20" height="20" fill="#f5f5f5"/>
    <rect x="110" y="160" width="20" height="20" fill="#9e9e9e"/>
    <rect x="130" y="160" width="20" height="20" fill="#f5f5f5"/>
    <rect x="150" y="160" width="20" height="20" fill="#9e9e9e"/>
    <rect x="170" y="160" width="20" height="20" fill="#f5f5f5"/>
    <rect x="190" y="160" width="20" height="20" fill="#9e9e9e"/>
    <rect x="210" y="160" width="20" height="20" fill="#f5f5f5"/>
    <rect x="230" y="160" width="20" height="20" fill="#9e9e9e"/>
    <rect x="250" y="160" width="20" height="20" fill="#f5f5f5"/>
    <rect x="270" y="160" width="20" height="20" fill="#9e9e9e"/>
    <rect x="290" y="160" width="20" height="20" fill="#f5f5f5"/>
    <rect x="310" y="160" width="20" height="20" fill="#9e9e9e"/>
  </g>
  
  <!-- Dancer -->
  <g transform="translate(200, 100)">
    <circle cx="0" cy="-20" r="15" fill="#ffeb3b" stroke="#fbc02d" stroke-width="1"/> <!-- head -->
    <line x1="0" y1="-5" x2="0" y2="25" stroke="#212121" stroke-width="3"/> <!-- body -->
    <line x1="0" y1="5" x2="-15" y2="-10" stroke="#212121" stroke-width="2"/> <!-- left arm -->
    <line x1="0" y1="5" x2="15" y2="-10" stroke="#212121" stroke-width="2"/> <!-- right arm -->
    <line x1="0" y1="25" x2="-10" y2="45" stroke="#212121" stroke-width="2"/> <!-- left leg -->
    <line x1="0" y1="25" x2="10" y2="45" stroke="#212121" stroke-width="2"/> <!-- right leg -->
  </g>
  
  <!-- Music notes -->
  <g>
    <path d="M320,40 Q325,30 330,40" stroke="#212121" stroke-width="1.5" fill="none"/>
    <circle cx="318" cy="40" r="4" fill="#212121"/>
    
    <path d="M340,60 Q345,50 350,60" stroke="#212121" stroke-width="1.5" fill="none"/>
    <circle cx="338" cy="60" r="4" fill="#212121"/>
    
    <path d="M360,20 Q365,10 370,20" stroke="#212121" stroke-width="1.5" fill="none"/>
    <circle cx="358" cy="20" r="4" fill="#212121"/>
  </g>
</svg>