<?xml version="1.0" encoding="UTF-8"?>
<svg width="400" height="200" viewBox="0 0 400 200" xmlns="http://www.w3.org/2000/svg">
  <rect x="0" y="0" width="400" height="200" fill="#e6f7ff"/>
  
  <!-- Sun -->
  <circle cx="350" cy="40" r="20" fill="#ffeb3b" stroke="#fbc02d" stroke-width="2"/>
  <line x1="350" y1="10" x2="350" y2="0" stroke="#ffeb3b" stroke-width="3"/>
  <line x1="350" y1="70" x2="350" y2="80" stroke="#ffeb3b" stroke-width="3"/>
  <line x1="320" y1="40" x2="310" y2="40" stroke="#ffeb3b" stroke-width="3"/>
  <line x1="380" y1="40" x2="390" y2="40" stroke="#ffeb3b" stroke-width="3"/>
  <line x1="329" y1="19" x2="322" y2="12" stroke="#ffeb3b" stroke-width="3"/>
  <line x1="371" y1="61" x2="378" y2="68" stroke="#ffeb3b" stroke-width="3"/>
  <line x1="329" y1="61" x2="322" y2="68" stroke="#ffeb3b" stroke-width="3"/>
  <line x1="371" y1="19" x2="378" y2="12" stroke="#ffeb3b" stroke-width="3"/>
  
  <!-- Ground -->
  <rect x="0" y="150" width="400" height="50" fill="#8d6e63"/>
  
  <!-- Hole -->
  <ellipse cx="100" cy="150" rx="30" ry="15" fill="#5d4037"/>
  
  <!-- Seed -->
  <circle cx="200" cy="140" r="5" fill="#795548" stroke="#5d4037" stroke-width="1"/>
  
  <!-- Flower stages -->
  <g transform="translate(300, 150)">
    <line x1="0" y1="0" x2="0" y2="-50" stroke="#4caf50" stroke-width="3"/>
    <circle cx="-10" cy="-60" r="10" fill="#e91e63"/>
    <circle cx="0" cy="-65" r="10" fill="#e91e63"/>
    <circle cx="10" cy="-60" r="10" fill="#e91e63"/>
    <circle cx="0" cy="-55" r="10" fill="#ffeb3b"/>
  </g>
</svg>