<?xml version="1.0" encoding="UTF-8" standalone="no"?>
<svg width="300" height="300" viewBox="0 0 300 300" xmlns="http://www.w3.org/2000/svg">
  <title>Music Composition</title>
  <style>
    .drums {
      fill: #4361ee;
      stroke: #3a56d4;
      stroke-width: 2;
    }
    .piano {
      fill: #f72585;
      stroke: #e91e63;
      stroke-width: 1;
    }
    .guitar {
      fill: #ff9e00;
      stroke: #fb8500;
      stroke-width: 1.5;
    }
    .note {
      fill: #ff9e00;
      stroke: #fb8500;
      stroke-width: 1;
    }
    .sound-wave {
      fill: none;
      stroke: #2b9348;
      stroke-width: 2;
      stroke-linecap: round;
    }
    .loop {
      fill: none;
      stroke: #f72585;
      stroke-width: 2;
      stroke-dasharray: 5,5;
    }
    .text {
      font-family: Arial, sans-serif;
      font-size: 14px;
      fill: #333;
    }
    .staff {
      stroke: #999;
      stroke-width: 1;
    }
    .bar {
      stroke: #333;
      stroke-width: 1;
    }
  </style>

  <!-- Background -->
  <rect width="300" height="300" fill="#f5f7fa" />
  
  <!-- Musical Staff Lines -->
  <g id="staff">
    <line class="staff" x1="30" y1="80" x2="270" y2="80" />
    <line class="staff" x1="30" y1="90" x2="270" y2="90" />
    <line class="staff" x1="30" y1="100" x2="270" y2="100" />
    <line class="staff" x1="30" y1="110" x2="270" y2="110" />
    <line class="staff" x1="30" y1="120" x2="270" y2="120" />
    
    <line class="bar" x1="90" y1="80" x2="90" y2="120" />
    <line class="bar" x1="150" y1="80" x2="150" y2="120" />
    <line class="bar" x1="210" y1="80" x2="210" y2="120" />
    <line class="bar" x1="270" y1="80" x2="270" y2="120" />
  </g>
  
  <!-- Instruments -->
  <g id="drum" transform="translate(60, 180)">
    <circle class="drums" cx="0" cy="0" r="25" />
    <circle fill="white" cx="0" cy="0" r="15" />
    <circle fill="#ddd" cx="0" cy="0" r="5" />
  </g>
  
  <g id="piano" transform="translate(150, 180)">
    <rect class="piano" x="-30" y="-20" width="60" height="40" rx="3" />
    <rect fill="white" x="-25" y="-15" width="10" height="30" />
    <rect fill="white" x="-10" y="-15" width="10" height="30" />
    <rect fill="white" x="5" y="-15" width="10" height="30" />
    <rect fill="white" x="20" y="-15" width="10" height="30" />
    <rect fill="black" x="-18" y="-15" width="6" height="20" />
    <rect fill="black" x="-3" y="-15" width="6" height="20" />
    <rect fill="black" x="12" y="-15" width="6" height="20" />
  </g>
  
  <g id="guitar" transform="translate(240, 180)">
    <path class="guitar" d="M-15,20 C-25,10 -25,-10 -15,-20 C-5,-25 5,-25 15,-20 C25,-10 25,10 15,20 C5,25 -5,25 -15,20 Z" />
    <line stroke="#fb8500" stroke-width="1" x1="0" y1="-18" x2="0" y2="18" />
    <line stroke="#fb8500" stroke-width="1" x1="-12" y1="-12" x2="12" y2="12" />
    <line stroke="#fb8500" stroke-width="1" x1="-12" y1="12" x2="12" y2="-12" />
    <circle fill="#f8f9fa" cx="0" cy="0" r="5" />
  </g>
  
  <!-- Musical Notes -->
  <g id="notes">
    <!-- Drum beats -->
    <g id="drum-notes" transform="translate(60, 50)">
      <circle class="note" cx="-20" cy="0" r="8" />
      <circle class="note" cx="0" cy="0" r="8" />
      <circle class="note" cx="20" cy="0" r="8" />
      <line stroke="#333" stroke-width="2" x1="-20" y1="-8" x2="-20" y2="15" />
      <line stroke="#333" stroke-width="2" x1="0" y1="-8" x2="0" y2="15" />
      <line stroke="#333" stroke-width="2" x1="20" y1="-8" x2="20" y2="15" />
    </g>
    
    <!-- Piano notes -->
    <g id="piano-notes" transform="translate(150, 50)">
      <circle class="piano" cx="-15" cy="0" r="7" />
      <circle class="piano" cx="0" cy="10" r="7" />
      <circle class="piano" cx="15" cy="-10" r="7" />
      <line stroke="#e91e63" stroke-width="1.5" x1="-15" y1="-7" x2="-15" y2="15" />
      <line stroke="#e91e63" stroke-width="1.5" x1="0" y1="3" x2="0" y2="25" />
      <line stroke="#e91e63" stroke-width="1.5" x1="15" y1="-17" x2="15" y2="5" />
    </g>
    
    <!-- Guitar notes -->
    <g id="guitar-notes" transform="translate(240, 50)">
      <path class="guitar" d="M-20,0 C-15,-5 -10,5 -5,0 C0,-5 5,5 10,0 C15,-5 20,5 25,0" />
      <circle class="note" cx="-10" cy="0" r="5" />
      <circle class="note" cx="5" cy="0" r="5" />
      <circle class="note" cx="20" cy="0" r="5" />
    </g>
  </g>
  
  <!-- Loop indicators -->
  <g id="loops">
    <!-- Repeat 4 times loop for drums -->
    <path class="loop" d="M40,140 h40 v-110 h40" />
    <text x="60" y="135" class="text" font-weight="bold">Repeat 4 times</text>
    
    <!-- Repeat 2 times loop for piano -->
    <path class="loop" d="M130,140 h40 v-110 h40" />
    <text x="150" y="135" class="text" font-weight="bold">Repeat 2 times</text>
    
    <!-- Repeat 3 times loop for guitar -->
    <path class="loop" d="M220,140 h40 v-110 h40" />
    <text x="240" y="135" class="text" font-weight="bold">Repeat 3 times</text>
  </g>
  
  <!-- Title and instructions -->
  <text x="150" y="240" class="text" text-anchor="middle" font-weight="bold" font-size="16">Music Composition</text>
  <text x="150" y="260" class="text" text-anchor="middle">Create music with multiple instruments</text>
  <text x="150" y="280" class="text" text-anchor="middle">Use loops for efficient composition</text>
</svg>
