<svg xmlns="http://www.w3.org/2000/svg" viewBox="0 0 300 300">
  <!-- Background - Grass -->
  <rect x="0" y="0" width="300" height="300" fill="#90ee90" />
  
  <!-- Home -->
  <rect x="200" y="50" width="80" height="80" fill="#8B4513" />
  <polygon points="200,50 280,50 240,10" fill="#A52A2A" />
  
  <!-- Dog -->
  <g transform="translate(50, 100)">
    <!-- Body -->
    <ellipse cx="25" cy="35" rx="20" ry="15" fill="#8B4513" />
    
    <!-- Head -->
    <circle cx="50" cy="30" r="15" fill="#8B4513" />
    
    <!-- Ears -->
    <ellipse cx="45" cy="15" rx="5" ry="10" fill="#8B4513" />
    <ellipse cx="55" cy="15" rx="5" ry="10" fill="#8B4513" />
    
    <!-- Eyes -->
    <circle cx="45" cy="25" r="2" fill="#000" />
    <circle cx="55" cy="25" r="2" fill="#000" />
    
    <!-- Nose -->
    <circle cx="50" cy="30" r="3" fill="#000" />
    
    <!-- Legs -->
    <rect x="15" y="45" width="5" height="15" fill="#8B4513" />
    <rect x="30" y="45" width="5" height="15" fill="#8B4513" />
    
    <!-- Tail -->
    <path d="M 5,30 Q 0,15 5,10" stroke="#8B4513" stroke-width="5" fill="none" />
  </g>
  
  <!-- Fish Bowl -->
  <g transform="translate(180, 180)">
    <!-- Bowl -->
    <ellipse cx="25" cy="30" rx="25" ry="20" fill="none" stroke="#87CEFA" stroke-width="3" />
    <path d="M 0,30 Q 25,50 50,30" fill="none" stroke="#87CEFA" stroke-width="3" />
    
    <!-- Water -->
    <ellipse cx="25" cy="30" rx="20" ry="15" fill="#87CEFA" fill-opacity="0.5" />
    
    <!-- Fish -->
    <path d="M 15,30 Q 25,25 35,30 Q 25,35 15,30" fill="#FF7F50" />
    <circle cx="35" cy="30" r="2" fill="#000" />
    <path d="M 15,30 L 10,35" stroke="#FF7F50" stroke-width="2" />
    <path d="M 15,30 L 10,25" stroke="#FF7F50" stroke-width="2" />
  </g>
  
  <!-- Dog Bone -->
  <g transform="translate(80, 170)">
    <ellipse cx="5" cy="5" rx="5" ry="8" fill="#E8E8E8" />
    <ellipse cx="30" cy="5" rx="5" ry="8" fill="#E8E8E8" />
    <rect x="5" y="2" width="25" height="6" fill="#E8E8E8" />
  </g>
  
  <!-- Water Bucket -->
  <g transform="translate(180, 140)">
    <path d="M 10,0 V 20 H 40 V 0" fill="none" stroke="#808080" stroke-width="2" />
    <rect x="10" y="5" width="30" height="15" fill="#87CEFA" fill-opacity="0.7" />
  </g>
</svg>
