<?xml version="1.0" encoding="UTF-8" standalone="no"?>
<svg width="300" height="300" viewBox="0 0 300 300" xmlns="http://www.w3.org/2000/svg">
  <title>Rainbow Colors</title>
  <style>
    .rainbow-red {
      fill: #ff0000;
      stroke: #d00000;
      stroke-width: 1;
    }
    .rainbow-orange {
      fill: #ff7700;
      stroke: #ff5400;
      stroke-width: 1;
    }
    .rainbow-yellow {
      fill: #ffdd00;
      stroke: #ffb700;
      stroke-width: 1;
    }
    .rainbow-green {
      fill: #00cc00;
      stroke: #009900;
      stroke-width: 1;
    }
    .rainbow-blue {
      fill: #0066ff;
      stroke: #0044cc;
      stroke-width: 1;
    }
    .rainbow-indigo {
      fill: #3300ff;
      stroke: #2200cc;
      stroke-width: 1;
    }
    .rainbow-violet {
      fill: #9900ff;
      stroke: #7700cc;
      stroke-width: 1;
    }
    .brush {
      fill: #4361ee;
      stroke: #3a56d4;
      stroke-width: 1;
    }
    .brush-handle {
      fill: #6f4518;
      stroke: #583212;
      stroke-width: 1;
    }
    .palette {
      fill: #f5f7fa;
      stroke: #adb5bd;
      stroke-width: 2;
    }
    .loop {
      fill: none;
      stroke: #f72585;
      stroke-width: 2;
      stroke-dasharray: 5,5;
    }
    .text {
      font-family: Arial, sans-serif;
      font-size: 14px;
      fill: #333;
    }
  </style>

  <!-- Background -->
  <rect width="300" height="300" fill="#f5f7fa" />
  
  <!-- Rainbow -->
  <g id="rainbow" transform="translate(150, 180)">
    <path class="rainbow-red" d="M-100,0 A100,100 0 0,1 100,0" stroke-width="15" fill="none" />
    <path class="rainbow-orange" d="M-85,0 A85,85 0 0,1 85,0" stroke-width="15" fill="none" />
    <path class="rainbow-yellow" d="M-70,0 A70,70 0 0,1 70,0" stroke-width="15" fill="none" />
    <path class="rainbow-green" d="M-55,0 A55,55 0 0,1 55,0" stroke-width="15" fill="none" />
    <path class="rainbow-blue" d="M-40,0 A40,40 0 0,1 40,0" stroke-width="15" fill="none" />
    <path class="rainbow-indigo" d="M-25,0 A25,25 0 0,1 25,0" stroke-width="15" fill="none" />
    <path class="rainbow-violet" d="M-10,0 A10,10 0 0,1 10,0" stroke-width="15" fill="none" />
  </g>
  
  <!-- Brush -->
  <g id="brush" transform="translate(230, 90) rotate(-30)">
    <rect class="brush" x="-10" y="-5" width="20" height="15" rx="2" />
    <rect class="brush-handle" x="-3" y="10" width="6" height="40" rx="2" />
    <path class="brush" d="M-10,-5 C-12,-10 -8,-15 0,-15 C8,-15 12,-10 10,-5" />
  </g>
  
  <!-- Color palette -->
  <g id="palette" transform="translate(80, 70)">
    <ellipse class="palette" cx="0" cy="0" rx="50" ry="35" />
    
    <!-- Color spots -->
    <circle fill="#ff0000" cx="-25" cy="-15" r="10" />
    <circle fill="#ff7700" cx="0" cy="-20" r="10" />
    <circle fill="#ffdd00" cx="25" cy="-15" r="10" />
    <circle fill="#00cc00" cx="-30" cy="10" r="10" />
    <circle fill="#0066ff" cx="0" cy="15" r="10" />
    <circle fill="#3300ff" cx="30" cy="10" r="10" />
    <circle fill="#9900ff" cx="0" cy="-3" r="10" />
  </g>
  
  <!-- Loop indicator -->
  <path class="loop" d="M150,30 v10 h-120 v70 h50 v20 h140 v-70 h-70" />
  <text x="150" y="40" class="text" text-anchor="middle" font-weight="bold">Repeat 7 times</text>
  
  <!-- Arrows showing flow -->
  <path d="M100,90 L150,130" fill="none" stroke="#333" stroke-width="2" marker-end="url(#arrowhead)" />
  <path d="M180,130 L220,100" fill="none" stroke="#333" stroke-width="2" marker-end="url(#arrowhead)" />
  
  <!-- Arrow marker definition -->
  <defs>
    <marker id="arrowhead" markerWidth="10" markerHeight="7" refX="9" refY="3.5" orient="auto">
      <polygon points="0 0, 10 3.5, 0 7" />
    </marker>
  </defs>
  
  <!-- Title and instructions -->
  <text x="150" y="250" class="text" text-anchor="middle" font-weight="bold" font-size="16">Rainbow Colors</text>
  <text x="150" y="270" class="text" text-anchor="middle">Use a loop to paint all 7 colors</text>
  <text x="150" y="290" class="text" text-anchor="middle">Choose color → Paint arc → Repeat</text>
</svg>
