<svg xmlns="http://www.w3.org/2000/svg" viewBox="0 0 300 300">
  <!-- Background - Obstacle Course -->
  <rect x="0" y="0" width="300" height="300" fill="#f5f5f5" />
  
  <!-- Track Path -->
  <path d="M30,30 L270,30 L270,270 L30,270 L30,30" fill="none" stroke="#ccc" stroke-width="4" stroke-dasharray="5,5" />
  
  <!-- Start Line -->
  <rect x="30" y="25" width="20" height="10" fill="#4caf50" />
  <text x="40" y="20" font-family="Arial" font-size="10" text-anchor="middle" fill="#333">START</text>
  
  <!-- Finish Line -->
  <rect x="250" y="265" width="20" height="10" fill="#f44336" />
  <text x="260" y="290" font-family="Arial" font-size="10" text-anchor="middle" fill="#333">FINISH</text>
  
  <!-- Wall Obstacle -->
  <rect x="80" y="30" width="15" height="100" fill="#795548" />
  <text x="87" y="145" font-family="Arial" font-size="10" text-anchor="middle" fill="#333">WALL</text>
  
  <!-- Water Obstacle -->
  <rect x="130" y="170" width="100" height="30" fill="#2196f3" fill-opacity="0.7" />
  <path d="M130,180 Q140,175 150,180 Q160,185 170,180 Q180,175 190,180 Q200,185 210,180 Q220,175 230,180" fill="none" stroke="#fff" stroke-width="2" />
  <text x="180" y="215" font-family="Arial" font-size="10" text-anchor="middle" fill="#333">WATER</text>
  
  <!-- Robot -->
  <g transform="translate(50, 70)">
    <!-- Robot Body -->
    <rect x="0" y="0" width="30" height="40" rx="5" ry="5" fill="#3f51b5" />
    
    <!-- Robot Head -->
    <rect x="5" y="-15" width="20" height="15" rx="3" ry="3" fill="#3f51b5" />
    
    <!-- Robot Eyes -->
    <circle cx="12" cy="-7" r="2" fill="#fff" />
    <circle cx="18" cy="-7" r="2" fill="#fff" />
    
    <!-- Robot Antenna -->
    <line x1="15" y1="-15" x2="15" y2="-25" stroke="#3f51b5" stroke-width="2" />
    <circle cx="15" cy="-25" r="3" fill="#f44336" />
    
    <!-- Robot Arms -->
    <rect x="-5" y="5" width="5" height="20" rx="2" ry="2" fill="#3f51b5" />
    <rect x="30" y="5" width="5" height="20" rx="2" ry="2" fill="#3f51b5" />
    
    <!-- Robot Legs -->
    <rect x="5" y="40" width="8" height="10" fill="#3f51b5" />
    <rect x="17" y="40" width="8" height="10" fill="#3f51b5" />
  </g>
  
  <!-- Decision Points -->
  <g transform="translate(0, 0)">
    <!-- Wall Decision -->
    <circle cx="65" cy="70" r="10" fill="#ffeb3b" fill-opacity="0.7" stroke="#333" stroke-width="1" />
    <text x="65" y="73" font-family="Arial" font-size="12" font-weight="bold" text-anchor="middle" fill="#333">?</text>
    
    <!-- Water Decision -->
    <circle cx="180" cy="155" r="10" fill="#ffeb3b" fill-opacity="0.7" stroke="#333" stroke-width="1" />
    <text x="180" y="158" font-family="Arial" font-size="12" font-weight="bold" text-anchor="middle" fill="#333">?</text>
    
    <!-- Finish Decision -->
    <circle cx="235" cy="250" r="10" fill="#ffeb3b" fill-opacity="0.7" stroke="#333" stroke-width="1" />
    <text x="235" y="253" font-family="Arial" font-size="12" font-weight="bold" text-anchor="middle" fill="#333">?</text>
  </g>
  
  <!-- Actions -->
  <g font-family="Arial" font-size="8" fill="#333">
    <!-- Turn Around Action -->
    <path d="M110,60 C120,40 140,40 150,60" fill="none" stroke="#333" stroke-width="2" marker-end="url(#arrowhead)" />
    <text x="130" y="45" text-anchor="middle">TURN AROUND</text>
    
    <!-- Jump Over Action -->
    <path d="M180,120 L180,140" fill="none" stroke="#333" stroke-width="2" />
    <path d="M170,140 L190,140" fill="none" stroke="#333" stroke-width="2" />
    <path d="M180,140 L180,160" fill="none" stroke="#333" stroke-width="2" marker-end="url(#arrowhead)" />
    <text x="180" y="130" text-anchor="middle">JUMP OVER</text>
    
    <!-- Celebrate Action -->
    <path d="M235,230 Q240,220 245,230 Q250,220 255,230" fill="none" stroke="#333" stroke-width="2" />
    <text x="245" y="218" text-anchor="middle">CELEBRATE</text>
    <path d="M245,230 L245,240" fill="none" stroke="#333" stroke-width="1" marker-end="url(#arrowhead)" />
  </g>
  
  <!-- Arrow Marker -->
  <defs>
    <marker id="arrowhead" markerWidth="10" markerHeight="7" refX="10" refY="3.5" orient="auto">
      <polygon points="0 0, 10 3.5, 0 7" fill="#333" />
    </marker>
  </defs>
</svg>
