<?xml version="1.0" encoding="UTF-8"?>
<svg xmlns="http://www.w3.org/2000/svg" viewBox="0 0 800 600">
  <!-- Background Grid -->
  <rect width="800" height="600" fill="#f0f0f0"/>
  <g id="grid">
    <g id="horizontal-lines" stroke="#ddd" stroke-width="1">
      <line x1="0" y1="100" x2="800" y2="100"/>
      <line x1="0" y1="200" x2="800" y2="200"/>
      <line x1="0" y1="300" x2="800" y2="300"/>
      <line x1="0" y1="400" x2="800" y2="400"/>
      <line x1="0" y1="500" x2="800" y2="500"/>
    </g>
    <g id="vertical-lines" stroke="#ddd" stroke-width="1">
      <line x1="100" y1="0" x2="100" y2="600"/>
      <line x1="200" y1="0" x2="200" y2="600"/>
      <line x1="300" y1="0" x2="300" y2="600"/>
      <line x1="400" y1="0" x2="400" y2="600"/>
      <line x1="500" y1="0" x2="500" y2="600"/>
      <line x1="600" y1="0" x2="600" y2="600"/>
      <line x1="700" y1="0" x2="700" y2="600"/>
    </g>
  </g>

  <!-- Maze Walls -->
  <g id="maze-walls" fill="#2196F3" opacity="0.8">
    <!-- More complex maze pattern -->
    <!-- Top row -->
    <rect x="0" y="0" width="800" height="20" />
    
    <!-- Left border -->
    <rect x="0" y="0" width="20" height="600" />
    
    <!-- Right border -->
    <rect x="780" y="0" width="20" height="600" />
    
    <!-- Bottom border -->
    <rect x="0" y="580" width="800" height="20" />
    
    <!-- Internal walls - horizontal -->
    <rect x="100" y="80" width="200" height="40" />
    <rect x="400" y="80" width="300" height="40" />
    <rect x="200" y="180" width="200" height="40" />
    <rect x="500" y="180" width="200" height="40" />
    <rect x="100" y="280" width="100" height="40" />
    <rect x="300" y="280" width="200" height="40" />
    <rect x="600" y="280" width="100" height="40" />
    <rect x="200" y="380" width="300" height="40" />
    <rect x="600" y="380" width="100" height="40" />
    <rect x="100" y="480" width="100" height="40" />
    <rect x="300" y="480" width="200" height="40" />
    
    <!-- Internal walls - vertical -->
    <rect x="180" y="120" width="40" height="80" />
    <rect x="380" y="120" width="40" height="80" />
    <rect x="580" y="120" width="40" height="80" />
    <rect x="280" y="220" width="40" height="80" />
    <rect x="480" y="220" width="40" height="80" />
    <rect x="180" y="320" width="40" height="80" />
    <rect x="380" y="320" width="40" height="180" />
    <rect x="580" y="320" width="40" height="80" />
    <rect x="280" y="420" width="40" height="80" />
    <rect x="480" y="420" width="40" height="80" />
    <rect x="680" y="420" width="40" height="80" />
  </g>

  <!-- Starting Point -->
  <g id="start-point" transform="translate(60, 60)">
    <circle cx="0" cy="0" r="30" fill="#4CAF50"/>
    <text x="0" y="5" font-family="Arial" font-size="12" fill="white" text-anchor="middle">START</text>
  </g>

  <!-- Robot -->
  <g id="robot" transform="translate(60, 60)">
    <!-- Robot body -->
    <rect x="-15" y="-20" width="30" height="40" rx="5" fill="#607D8B"/>
    
    <!-- Robot head -->
    <rect x="-10" y="-35" width="20" height="15" rx="3" fill="#607D8B"/>
    
    <!-- Robot eyes -->
    <circle cx="-5" cy="-28" r="3" fill="#4FC3F7"/>
    <circle cx="5" cy="-28" r="3" fill="#4FC3F7"/>
    
    <!-- Robot antenna -->
    <line x1="0" y1="-35" x2="0" y2="-40" stroke="#9E9E9E" stroke-width="2"/>
    <circle cx="0" cy="-42" r="3" fill="#F44336"/>
    
    <!-- Robot arms -->
    <rect x="-25" y="-15" width="10" height="5" fill="#9E9E9E"/>
    <rect x="15" y="-15" width="10" height="5" fill="#9E9E9E"/>
    
    <!-- Robot legs -->
    <rect x="-10" y="20" width="5" height="10" fill="#9E9E9E"/>
    <rect x="5" y="20" width="5" height="10" fill="#9E9E9E"/>
  </g>

  <!-- Obstacles - Sensors -->
  <g id="sensors">
    <circle cx="240" cy="240" r="15" fill="#FF5722"/>
    <circle cx="340" cy="440" r="15" fill="#FF5722"/>
    <circle cx="540" cy="140" r="15" fill="#FF5722"/>
    <circle cx="640" cy="340" r="15" fill="#FF5722"/>
  </g>

  <!-- Treasure Chest - Final Goal -->
  <g id="treasure-chest" transform="translate(740, 540)">
    <!-- Chest base -->
    <rect x="-20" y="-15" width="40" height="30" fill="#795548"/>
    
    <!-- Chest lid -->
    <path d="M-20,-15 Q0,-30 20,-15" fill="none" stroke="#795548" stroke-width="5"/>
    
    <!-- Chest highlights -->
    <rect x="-15" y="-10" width="30" height="5" fill="#8D6E63"/>
    <rect x="-15" y="0" width="30" height="5" fill="#8D6E63"/>
    <rect x="-15" y="10" width="30" height="5" fill="#8D6E63"/>
    
    <!-- Treasure glow -->
    <circle cx="0" cy="0" r="10" fill="#FFD700" opacity="0.7"/>
  </g>
  
  <!-- Path hints - dashed line showing correct path -->
  <path d="M60,60 L60,150 L120,150 L120,240 L240,240 L240,340 L340,340 L340,440 L440,440 L440,540 L640,540 L640,340 L540,340 L540,140 L660,140 L660,240 L740,240 L740,540" 
        stroke="#7CB342" stroke-width="3" stroke-dasharray="5,5" opacity="0.4"/>
  
  <!-- Checkpoints -->
  <g id="checkpoints">
    <circle cx="240" cy="340" r="8" fill="#AB47BC" opacity="0.7"/>
    <circle cx="440" cy="440" r="8" fill="#AB47BC" opacity="0.7"/>
    <circle cx="640" cy="340" r="8" fill="#AB47BC" opacity="0.7"/>
    <circle cx="540" cy="140" r="8" fill="#AB47BC" opacity="0.7"/>
  </g>
</svg>
