<?xml version="1.0" encoding="UTF-8"?>
<svg xmlns="http://www.w3.org/2000/svg" viewBox="0 0 800 600">
  <!-- Background Grid -->
  <rect width="800" height="600" fill="#f0f0f0"/>
  <g id="grid">
    <g id="horizontal-lines" stroke="#ddd" stroke-width="1">
      <line x1="0" y1="100" x2="800" y2="100"/>
      <line x1="0" y1="200" x2="800" y2="200"/>
      <line x1="0" y1="300" x2="800" y2="300"/>
      <line x1="0" y1="400" x2="800" y2="400"/>
      <line x1="0" y1="500" x2="800" y2="500"/>
    </g>
    <g id="vertical-lines" stroke="#ddd" stroke-width="1">
      <line x1="100" y1="0" x2="100" y2="600"/>
      <line x1="200" y1="0" x2="200" y2="600"/>
      <line x1="300" y1="0" x2="300" y2="600"/>
      <line x1="400" y1="0" x2="400" y2="600"/>
      <line x1="500" y1="0" x2="500" y2="600"/>
      <line x1="600" y1="0" x2="600" y2="600"/>
      <line x1="700" y1="0" x2="700" y2="600"/>
    </g>
  </g>
  
  <!-- Maze Walls -->
  <g id="maze-walls" stroke="#333" stroke-width="6" stroke-linecap="round">
    <!-- Outer Border -->
    <rect x="50" y="50" width="700" height="500" fill="none"/>
    
    <!-- Internal Walls -->
    <line x1="50" y1="150" x2="250" y2="150"/>
    <line x1="150" y1="150" x2="150" y2="250"/>
    <line x1="250" y1="150" x2="250" y2="350"/>
    <line x1="250" y1="350" x2="350" y2="350"/>
    <line x1="350" y1="250" x2="350" y2="450"/>
    <line x1="350" y1="250" x2="450" y2="250"/>
    <line x1="450" y1="50" x2="450" y2="150"/>
    <line x1="450" y1="250" x2="450" y2="350"/>
    <line x1="350" y1="450" x2="550" y2="450"/>
    <line x1="550" y1="250" x2="550" y2="450"/>
    <line x1="550" y1="250" x2="650" y2="250"/>
    <line x1="650" y1="150" x2="650" y2="350"/>
    <line x1="550" y1="150" x2="750" y2="150"/>
    <line x1="550" y1="150" x2="550" y2="50"/>
  </g>
  
  <!-- Start Point -->
  <g id="start-point">
    <circle cx="100" cy="100" r="30" fill="#4CAF50" opacity="0.7"/>
    <text x="100" y="105" font-family="Arial" font-size="14" fill="white" text-anchor="middle">START</text>
  </g>
  
  <!-- Robot -->
  <g id="robot" transform="translate(100, 100)">
    <rect x="-20" y="-20" width="40" height="40" rx="5" fill="#2196F3"/>
    <circle cx="-8" cy="-8" r="5" fill="white"/>
    <circle cx="8" cy="-8" r="5" fill="white"/>
    <circle cx="-8" cy="-8" r="2" fill="black"/>
    <circle cx="8" cy="-8" r="2" fill="black"/>
    <path d="M-10 5 Q0 15 10 5" stroke="white" stroke-width="2" fill="none"/>
    <rect x="-15" y="20" width="10" height="5" fill="#2196F3"/>
    <rect x="5" y="20" width="10" height="5" fill="#2196F3"/>
    <!-- Arrow showing direction - initially pointing down -->
    <polygon points="0,-30 -7,-20 7,-20" fill="#FF5722"/>
  </g>
  
  <!-- Treasure -->
  <g id="treasure" transform="translate(600, 300)">
    <rect x="-25" y="-15" width="50" height="30" rx="5" fill="#FFD700"/>
    <rect x="-25" y="-20" width="50" height="10" rx="5" fill="#CD7F32"/>
    <circle cx="-10" cy="0" r="5" fill="#CD7F32"/>
    <circle cx="10" cy="0" r="5" fill="#CD7F32"/>
    <text x="0" y="5" font-family="Arial" font-size="12" fill="#CD7F32" text-anchor="middle">$</text>
  </g>
  
  <!-- Legend -->
  <g id="legend" transform="translate(650, 530)">
    <rect x="0" y="0" width="130" height="60" fill="white" opacity="0.8" rx="5"/>
    
    <circle cx="15" cy="15" r="7" fill="#4CAF50"/>
    <text x="30" y="20" font-family="Arial" font-size="12">Start</text>
    
    <rect x="5" y="30" width="15" height="15" fill="#2196F3"/>
    <text x="30" y="42" font-family="Arial" font-size="12">Robot</text>
    
    <rect x="10" y="55" width="10" height="5" fill="#FFD700"/>
    <text x="30" y="60" font-family="Arial" font-size="12">Treasure</text>
  </g>
  
  <!-- Directions Needed -->
  <g id="directions" transform="translate(200, 530)">
    <rect x="0" y="0" width="400" height="60" fill="white" opacity="0.8" rx="5"/>
    <text x="200" y="20" font-family="Arial" font-size="14" text-anchor="middle" font-weight="bold">Solution Path:</text>
    <text x="200" y="45" font-family="Arial" font-size="12" text-anchor="middle">Move → Turn Right → Move → Turn Left → Move → Pick Up</text>
  </g>
</svg>
