<?xml version="1.0" encoding="UTF-8"?>
<svg xmlns="http://www.w3.org/2000/svg" viewBox="0 0 800 600">
  <!-- Background -->
  <rect width="800" height="600" fill="#f0f8ff"/>
  
  <!-- Grid -->
  <g id="grid" stroke="#ccc" stroke-width="1">
    <line x1="100" y1="0" x2="100" y2="600"/>
    <line x1="200" y1="0" x2="200" y2="600"/>
    <line x1="300" y1="0" x2="300" y2="600"/>
    <line x1="400" y1="0" x2="400" y2="600"/>
    <line x1="500" y1="0" x2="500" y2="600"/>
    <line x1="600" y1="0" x2="600" y2="600"/>
    <line x1="700" y1="0" x2="700" y2="600"/>
    
    <line x1="0" y1="100" x2="800" y2="100"/>
    <line x1="0" y1="200" x2="800" y2="200"/>
    <line x1="0" y1="300" x2="800" y2="300"/>
    <line x1="0" y1="400" x2="800" y2="400"/>
    <line x1="0" y1="500" x2="800" y2="500"/>
  </g>
  
  <!-- Path from Robot to Treasure (dotted line) -->
  <path d="M100 100 L300 100 L300 300 L500 300 L500 500 L700 500" stroke="#FF9800" stroke-width="4" stroke-dasharray="10,5" fill="none" opacity="0.6"/>
  
  <!-- Maze Walls -->
  <g id="walls" stroke="#34495e" stroke-width="8" stroke-linecap="round">
    <!-- Inner walls -->
    <line x1="0" y1="200" x2="200" y2="200"/>
    <line x1="200" y1="0" x2="200" y2="400"/>
    <line x1="400" y1="200" x2="400" y2="400"/>
    <line x1="400" y1="400" x2="600" y2="400"/>
    <line x1="600" y1="100" x2="600" y2="400"/>
    <line x1="300" y1="500" x2="400" y2="500"/>
    <line x1="100" y1="300" x2="200" y2="300"/>
    <line x1="500" y1="100" x2="800" y2="100"/>
    <line x1="300" y1="100" x2="300" y2="200"/>
    <line x1="500" y1="200" x2="600" y2="200"/>
    <line x1="700" y1="200" x2="700" y2="600"/>
  </g>
  
  <!-- Robot at start position -->
  <g id="robot" transform="translate(100, 100)">
    <circle cx="0" cy="0" r="35" fill="#2196F3" opacity="0.9"/>
    <rect x="-20" y="-20" width="40" height="40" rx="5" fill="#2196F3"/>
    <circle cx="-8" cy="-8" r="5" fill="white"/>
    <circle cx="8" cy="-8" r="5" fill="white"/>
    <circle cx="-8" cy="-8" r="2" fill="black"/>
    <circle cx="8" cy="-8" r="2" fill="black"/>
    <path d="M-10 5 Q0 15 10 5" stroke="white" stroke-width="2" fill="none"/>
    <rect x="-15" y="20" width="10" height="5" fill="#2196F3"/>
    <rect x="5" y="20" width="10" height="5" fill="#2196F3"/>
    <!-- Label -->
    <text x="0" y="-45" text-anchor="middle" font-family="Arial" font-size="18" font-weight="bold" fill="#2196F3">START</text>
  </g>
  
  <!-- Treasure at end position -->
  <g id="treasure" transform="translate(700, 500)">
    <circle cx="0" cy="0" r="35" fill="#FFD700" opacity="0.6"/>
    <rect x="-25" y="-15" width="50" height="30" rx="5" fill="#FFD700"/>
    <rect x="-25" y="-20" width="50" height="10" rx="5" fill="#CD7F32"/>
    <circle cx="-10" cy="0" r="5" fill="#CD7F32"/>
    <circle cx="10" cy="0" r="5" fill="#CD7F32"/>
    <text x="0" y="5" font-family="Arial" font-size="16" font-weight="bold" fill="#CD7F32" text-anchor="middle">$</text>
    <!-- Label -->
    <text x="0" y="-35" text-anchor="middle" font-family="Arial" font-size="18" font-weight="bold" fill="#FFD700">TREASURE</text>
  </g>
  
  <!-- Instructions -->
  <g id="instructions" transform="translate(400, 550)">
    <rect x="-250" y="-30" width="500" height="60" rx="10" fill="white" stroke="#34495e" stroke-width="2"/>
    <text x="0" y="0" text-anchor="middle" font-family="Arial" font-size="16" fill="#34495e">Guide the robot through the maze to find the treasure!</text>
    <text x="0" y="25" text-anchor="middle" font-family="Arial" font-size="14" fill="#34495e">Use Move Forward, Turn Left, Turn Right, and Pick Up commands.</text>
  </g>
</svg>
