<svg xmlns="http://www.w3.org/2000/svg" viewBox="0 0 300 300">
  <!-- Traffic Light Body -->
  <rect x="120" y="20" width="60" height="180" rx="10" ry="10" fill="#444" />
  
  <!-- Traffic Light Stand -->
  <rect x="145" y="200" width="10" height="80" fill="#333" />
  
  <!-- Red Light -->
  <circle cx="150" cy="60" r="20" fill="#ff0000" />
  
  <!-- Yellow Light -->
  <circle cx="150" cy="110" r="20" fill="#ffff00" />
  
  <!-- Green Light -->
  <circle cx="150" cy="160" r="20" fill="#00ff00" />
  
  <!-- Car -->
  <g transform="translate(50, 230)">
    <rect x="0" y="0" width="80" height="30" rx="8" ry="8" fill="#3498db" />
    <rect x="60" y="-15" width="40" height="25" rx="5" ry="5" fill="#3498db" />
    <circle cx="20" cy="30" r="10" fill="#333" />
    <circle cx="70" cy="30" r="10" fill="#333" />
  </g>
  
  <!-- Road -->
  <rect x="0" y="240" width="300" height="40" fill="#555" />
  <rect x="15" y="258" width="30" height="4" fill="#fff" />
  <rect x="75" y="258" width="30" height="4" fill="#fff" />
  <rect x="135" y="258" width="30" height="4" fill="#fff" />
  <rect x="195" y="258" width="30" height="4" fill="#fff" />
  <rect x="255" y="258" width="30" height="4" fill="#fff" />
</svg>
